<svg xmlns="http://www.w3.org/2000/svg" width="24" height="24" viewBox="0 0 24 24"><g transform="translate(-3550 1322)"><rect width="24" height="24" transform="translate(3550 -1322)" fill="none"/><path d="M4.4,18a.274.274,0,0,1-.267-.281V12.375H3.6a.282.282,0,0,1,0-.563H8.4a.282.282,0,0,1,0,.563H7.867v5.344A.274.274,0,0,1,7.6,18Zm.267-.562H7.333V12.375H4.667ZM5.2,16.031a.8.8,0,1,1,.8.844A.823.823,0,0,1,5.2,16.031Zm.533,0A.267.267,0,1,0,6,15.75.274.274,0,0,0,5.733,16.031Zm2.933-1.406a.282.282,0,0,1,0-.563h.267a2.605,2.605,0,0,0,2.533-2.672V3.234A2.605,2.605,0,0,0,8.933.562H3.067A2.605,2.605,0,0,0,.533,3.234v8.156a2.605,2.605,0,0,0,2.533,2.672h.267a.282.282,0,0,1,0,.563H3.067A3.154,3.154,0,0,1,0,11.391V3.234A3.154,3.154,0,0,1,3.067,0H8.933A3.154,3.154,0,0,1,12,3.234v8.156a3.154,3.154,0,0,1-3.067,3.234ZM2.533,9.562a.274.274,0,0,1-.267-.281V2.672a.274.274,0,0,1,.267-.281H9.467a.274.274,0,0,1,.267.281V9.281a.274.274,0,0,1-.267.281ZM2.8,9H9.2V2.953H2.8ZM6,8.156a1.479,1.479,0,0,1-1.441-1.51A4.875,4.875,0,0,1,5.808,3.883a.257.257,0,0,1,.373-.011,4.36,4.36,0,0,1,1.26,2.774A1.479,1.479,0,0,1,6,8.156ZM5.092,6.65a.909.909,0,1,0,1.816,0,3.608,3.608,0,0,0-.9-2.15A3.94,3.94,0,0,0,5.092,6.65Z" transform="translate(3556.5 -1318.5)" stroke="#000" stroke-width="0.25" opacity="0.54"/></g></svg>