<svg xmlns="http://www.w3.org/2000/svg" width="24" height="24" viewBox="0 0 24 24"><g transform="translate(-3693 1320)"><rect width="24" height="24" transform="translate(3693 -1320)" fill="none"/><g transform="translate(6.363 -21)" opacity="0.54"><path d="M16.481,34.038a2.712,2.712,0,0,1-2.647-1.353c-.6-1.392.644-3.277,2.78-4.2s4.364-.545,4.967.847-.644,3.277-2.78,4.2A5.9,5.9,0,0,1,16.481,34.038Zm2.476-5.668a5.571,5.571,0,0,0-2.183.48c-1.933.837-3.087,2.487-2.572,3.676s2.507,1.477,4.441.639,3.087-2.487,2.572-3.676A2.306,2.306,0,0,0,18.957,28.37Zm-.7,3.894a4.851,4.851,0,0,0,1.229-.761l-.262-.3a4.431,4.431,0,0,1-1.126.7,4.156,4.156,0,0,1-1.625.363c-.611,0-.957-.188-1-.283l-.367.159c.136.314.684.524,1.365.524A4.552,4.552,0,0,0,18.252,32.264Zm2.061-2.384a.719.719,0,0,0-.366-.333,3.108,3.108,0,0,0-1.883-.09l.087.39a3.672,3.672,0,0,1,.8-.092,1.905,1.905,0,0,1,.825.152.374.374,0,0,1,.173.131.912.912,0,0,1-.221.606l.331.225A1.139,1.139,0,0,0,20.313,29.88ZM9.753,31.349a5.8,5.8,0,0,1-2.189-.454,5.438,5.438,0,0,1-2.375-1.8,2.339,2.339,0,0,1-.413-2.256,2.34,2.34,0,0,1,1.883-1.311,5.443,5.443,0,0,1,2.954.4c2.1.867,3.353,2.687,2.788,4.058h0A2.689,2.689,0,0,1,9.753,31.349ZM7.415,25.863a3.975,3.975,0,0,0-.687.058,1.96,1.96,0,0,0-1.583,1.069,1.959,1.959,0,0,0,.37,1.874,5.038,5.038,0,0,0,2.2,1.662c1.9.782,3.834.469,4.316-.7s-.672-2.753-2.571-3.536A5.435,5.435,0,0,0,7.415,25.863Zm3.349,3.924-.2-.345A2.907,2.907,0,0,1,8.248,29.3,2.908,2.908,0,0,1,6.51,27.772l-.387.1a3.239,3.239,0,0,0,1.973,1.8,4.29,4.29,0,0,0,1.618.345A2.12,2.12,0,0,0,10.765,29.787Zm5.718-4.244c-1.675,0-3.615-.4-3.615-1.52v-.189c0-1.121,1.94-1.52,3.6-1.521s3.615.4,3.615,1.52v.189C20.085,25.143,18.144,25.542,16.483,25.543Zm0-2.83c-1.868,0-3.215.472-3.215,1.12v.192c0,.647,1.347,1.118,3.2,1.119s3.215-.472,3.215-1.12v-.191C19.684,23.184,18.338,22.713,16.483,22.712ZM9.866,24.6a1.271,1.271,0,1,1,1.271-1.271A1.273,1.273,0,0,1,9.866,24.6Zm0-2.142a.871.871,0,1,0,.871.871A.872.872,0,0,0,9.866,22.459Zm11.977,5.415a.794.794,0,1,1,.794-.794A.794.794,0,0,1,21.843,27.874Zm0-1.187a.394.394,0,1,0,.394.394A.394.394,0,0,0,21.843,26.687Z" transform="translate(3685 -1315.059)" stroke="#000" stroke-width="0.5"/></g></g></svg>