<svg xmlns="http://www.w3.org/2000/svg" width="24" height="24" viewBox="0 0 24 24"><g transform="translate(-3836 1322)"><rect width="24" height="24" transform="translate(3836 -1322)" fill="none"/><path d="M12.141,6.26,11.03,9.876h0l-.155.505a.8.8,0,0,1-.992.526.807.807,0,0,1-.531-.546L8.7,8.239a.8.8,0,0,1-.505.178H2.074a.794.794,0,1,1,0-1.588h5.54l.392-1.275a.807.807,0,0,1,.531-.546.8.8,0,0,1,.992.526l.155.505h0l.433,1.408,1.26-4.1a.807.807,0,0,1,.531-.546.8.8,0,0,1,.992.526l.155.505h0L13.96,6.78h4.526a.794.794,0,0,1,0,1.588H13.374a.8.8,0,0,1-.764-.581L12.14,6.26Z" transform="translate(3837.72 -1316.764)" fill-rule="evenodd" opacity="0.54"/></g></svg>