<svg xmlns="http://www.w3.org/2000/svg" width="24" height="24" viewBox="0 0 24 24"><g transform="translate(-4012 1325)"><rect width="24" height="24" transform="translate(4012 -1325)" fill="none"/><g transform="translate(-42 -36)" opacity="0.54"><path d="M1.539,0A1.542,1.542,0,0,0,0,1.539V14.048a1.531,1.531,0,0,0,1.43,1.517v4.023a1,1,0,0,0,2.006,0V15.565a1.531,1.531,0,0,0,1.43-1.517V1.539A1.542,1.542,0,0,0,3.326,0Zm0,.577H3.326a.954.954,0,0,1,.963.963V14.048a.954.954,0,0,1-.963.963H3.147a.289.289,0,0,0-.288.288v4.289a.426.426,0,0,1-.853,0V15.3a.289.289,0,0,0-.288-.288H1.539a.954.954,0,0,1-.963-.963V1.539A.954.954,0,0,1,1.539.577Z" transform="translate(4071.559 -1286) rotate(45)" stroke="#000" stroke-width="0.25"/><path d="M.288,0A.289.289,0,0,0,0,.288V11.725a.288.288,0,0,0,.577,0V.288A.289.289,0,0,0,.288,0Z" transform="translate(4071.307 -1283.726) rotate(45)" stroke="#000" stroke-width="0.25"/><path d="M.288,0a.288.288,0,1,0,0,.577h1.43a.288.288,0,1,0,0-.577Z" transform="translate(4072.317 -1282.715) rotate(45)" stroke="#000" stroke-width="0.25"/><path d="M.288,0a.288.288,0,1,0,0,.577H1.361a.288.288,0,1,0,0-.577Z" transform="translate(4071.559 -1281.451) rotate(45)" stroke="#000" stroke-width="0.25"/><path d="M.288,0a.288.288,0,1,0,0,.577h1.43a.288.288,0,1,0,0-.577Z" transform="translate(4072.317 -1282.715) rotate(45)" stroke="#000" stroke-width="0.25"/><path d="M.288,0a.288.288,0,1,0,0,.577H1.361a.288.288,0,1,0,0-.577Z" transform="translate(4071.559 -1281.451) rotate(45)" stroke="#000" stroke-width="0.25"/><path d="M.288,0a.288.288,0,1,0,0,.577h1.43a.288.288,0,1,0,0-.577Z" transform="translate(4070.296 -1280.693) rotate(45)" stroke="#000" stroke-width="0.25"/><path d="M.288,0a.288.288,0,1,0,0,.577H1.361a.288.288,0,1,0,0-.577Z" transform="translate(4069.538 -1279.43) rotate(45)" stroke="#000" stroke-width="0.25"/><path d="M.288,0a.288.288,0,1,0,0,.577h1.43a.288.288,0,1,0,0-.577Z" transform="translate(4068.274 -1278.672) rotate(45)" stroke="#000" stroke-width="0.25"/><path d="M.288,0a.288.288,0,1,0,0,.577H1.361a.288.288,0,1,0,0-.577Z" transform="translate(4067.516 -1277.408) rotate(45)" stroke="#000" stroke-width="0.25"/><path d="M.288,0a.288.288,0,1,0,0,.577h1.43a.288.288,0,1,0,0-.577Z" transform="translate(4066.252 -1276.65) rotate(45)" stroke="#000" stroke-width="0.25"/><path d="M.288,0a.288.288,0,1,0,0,.577H1.361a.288.288,0,1,0,0-.577Z" transform="translate(4065.494 -1275.386) rotate(45)" stroke="#000" stroke-width="0.25"/><path d="M.288,0a.288.288,0,1,0,0,.577h1.43a.288.288,0,1,0,0-.577Z" transform="translate(4064.23 -1274.628) rotate(45)" stroke="#000" stroke-width="0.25"/></g></g></svg>